:SAMPLES-PER-SECOND 30
:FULLY-SPECIFIED
:DEGREES
218
root  52.4655 35.5907 17.6769 0.118515 -75.9371 1.5921
RightUpLeg  -37.9759 -1.66798 -5.36338
RightLeg  54.9409 -2.74495 -4.63259
RightFoot  -11.8747 -0.0455217 7.5491
RightToes  0.000482159 0.542163 -0.142577
Spine  53.3634 -1.33424 -1.29281
Spine1  -7.51055 -2.88066 1.33987
HEad  -56.9746 -16.5369 13.4306
LeftShoulder1  11.3708 -17.0261 -48.3491
LeftArm  -24.8694 5.88345 -23.6534
LeftForeArm  48.2884 -58.232 -13.7846
LeftHand  -0.25398 0.0180481 5.50724
RightShoulder  7.14755 12.3091 39.1023
RightArm  -6.45713 20.6576 33.5384
RightForeArm  8.18508 58.716 18.1324
RightHand  -3.6674 9.61077 -28.2588
LeftUpLeg  -41.9958 2.51466 -2.45317
LeftLeg  40.0241 1.92158 2.11692
LeftFoot  1.18476 -0.321571 2.868
LeftToes  1.06246e-005 4.65855e-005 -8.18502e-006
219
root  52.8096 35.8247 17.5554 -3.08514 -74.6736 5.69177
RightUpLeg  -34.9098 -5.17698 -2.24037
RightLeg  60.3434 -2.967 -6.16367
RightFoot  -15.2972 0.157192 7.50376
RightToes  0.000482159 0.542163 -0.142577
Spine  50.8932 -0.344055 -2.69078
Spine1  -6.10944 -2.57231 1.50735
HEad  -51.4151 -17.5873 13.0111
LeftShoulder1  11.235 -16.7431 -48.4406
LeftArm  -25.191 7.89485 -23.6661
LeftForeArm  48.0694 -56.0213 -12.5328
LeftHand  -0.25398 0.0180481 5.50724
RightShoulder  6.93797 12.053 38.5272
RightArm  -6.64659 20.6669 33.5205
RightForeArm  7.61763 58.4632 17.9927
RightHand  -3.5665 9.45805 -27.7906
LeftUpLeg  -41.5452 2.86802 -4.13589
LeftLeg  36.5533 0.873634 1.07007
LeftFoot  2.60068 -0.311145 2.42158
LeftToes  1.06246e-005 4.65855e-005 -8.18502e-006
220
root  53.1104 36.0216 17.3845 -5.71545 -72.6468 9.16658
RightUpLeg  -29.8238 -9.74458 0.616754
RightLeg  62.2662 -3.83874 -8.42659
RightFoot  -18.5268 0.360979 7.72042
RightToes  0.000482159 0.542163 -0.142577
Spine  48.1838 0.35058 -3.50322
Spine1  -4.56465 -2.15536 1.29945
HEad  -46.1112 -18.9053 12.5571
LeftShoulder1  11.0197 -16.5419 -47.9851
LeftArm  -25.5636 10.1491 -24.6656
LeftForeArm  45.9504 -55.2247 -12.2904
LeftHand  -0.25398 0.0180481 5.50724
RightShoulder  6.8091 11.9134 38.1125
RightArm  -7.31989 19.1376 33.1661
RightForeArm  7.51277 58.9572 18.3958
RightHand  -3.5424 9.45998 -27.6092
LeftUpLeg  -40.9966 3.87213 -6.24646
LeftLeg  33.0244 -1.09033 -0.404402
LeftFoot  3.99206 -0.186626 1.21228
LeftToes  1.06246e-005 4.65855e-005 -8.18502e-006
221
root  53.3778 36.1306 17.211 -6.39624 -69.7819 10.4864
RightUpLeg  -22.9454 -15.5742 3.08215
RightLeg  58.3143 -6.58794 -11.7307
RightFoot  -24.4318 0.647573 7.15106
RightToes  0.000482159 0.542163 -0.142577
Spine  45.3761 0.68108 -3.31057
Spine1  -3.29554 -1.74925 1.25735
HEad  -40.8322 -20.7122 12.226
LeftShoulder1  10.7971 -16.3701 -47.4139
LeftArm  -25.5045 11.8944 -26.0786
LeftForeArm  43.1867 -54.6515 -12.2184
LeftHand  -0.25398 0.0180481 5.50724
RightShoulder  6.71385 11.6584 38.2247
RightArm  -8.09716 16.7227 32.2294
RightForeArm  7.12924 59.7355 19.0781
RightHand  -3.56673 9.48034 -27.7529
LeftUpLeg  -40.6226 4.92299 -8.42618
LeftLeg  30.1753 -3.36774 -1.77974
LeftFoot  5.48463 -0.0393886 0.0371133
LeftToes  1.06246e-005 4.65855e-005 -8.18502e-006
222
root  53.6931 36.0772 17.0703 -5.70932 -66.8918 10.2638
RightUpLeg  -17.3979 -20.1416 4.8829
RightLeg  51.3252 -11.2382 -14.9952
RightFoot  -31.9229 0.753298 5.37078
RightToes  0.000482159 0.542163 -0.142577
Spine  42.8079 0.757494 -2.30567
Spine1  -2.52249 -1.19357 0.786934
HEad  -35.5459 -22.6506 12.1814
LeftShoulder1  10.6053 -16.1426 -47.1053
LeftArm  -25.0464 12.591 -27.1286
LeftForeArm  42.912 -53.8844 -11.8508
LeftHand  -0.25398 0.0180481 5.50724
RightShoulder  6.64976 11.3207 38.7777
RightArm  -8.78245 14.1795 30.9807
RightForeArm  6.37286 60.3665 19.7046
RightHand  -3.57301 9.38317 -27.971
LeftUpLeg  -40.966 5.39825 -10.1883
LeftLeg  28.816 -4.97047 -2.62552
LeftFoot  6.63696 0.0472454 -0.557068
LeftToes  1.06246e-005 4.65855e-005 -8.18502e-006
223
root  54.1424 35.993 17.0075 -3.9718 -65.1066 8.39594
RightUpLeg  -15.3777 -21.0797 6.41194
RightLeg  46.8294 -15.4237 -17.2421
RightFoot  -36.061 0.475425 3.25763
RightToes  0.000482159 0.542163 -0.142577
Spine  40.7478 0.613631 -0.374219
Spine1  -1.55457 -0.422401 -0.411766
HEad  -31.5699 -23.8625 12.2718
LeftShoulder1  10.4667 -15.8813 -47.1175
LeftArm  -24.5977 12.2617 -27.5618
LeftForeArm  44.5059 -52.8508 -11.2259
LeftHand  -0.25398 0.0180481 5.50724
RightShoulder  6.71213 11.2499 39.3858
RightArm  -9.31129 12.5071 30.0478
RightForeArm  5.69484 60.404 19.809
RightHand  -3.58168 9.3606 -28.0756
LeftUpLeg  -41.2845 5.50772 -10.7093
LeftLeg  28.0101 -5.59252 -2.88792
LeftFoot  7.66376 0.0870603 -0.799917
LeftToes  1.06246e-005 4.65855e-005 -8.18502e-006
224
root  54.6053 36.0621 17.0167 -1.83112 -64.2517 5.43404
RightUpLeg  -15.4313 -20.3516 7.57129
RightLeg  46.0772 -16.7653 -18.0789
RightFoot  -35.5335 0.248853 2.29369
RightToes  0.000482159 0.542163 -0.142577
Spine  38.9525 0.352628 1.67854
Spine1  0.438779 0.163564 -1.18548
HEad  -29.6692 -23.9379 12.168
LeftShoulder1  10.39 -15.6565 -47.326
LeftArm  -24.0728 11.5553 -27.5963
LeftForeArm  44.529 -50.7109 -10.282
LeftHand  -0.25398 0.0180481 5.50724
RightShoulder  6.89252 11.5001 39.808
RightArm  -9.25451 12.1849 29.9697
RightForeArm  5.59061 59.4095 18.9654
RightHand  -3.58555 9.45482 -27.9364
LeftUpLeg  -40.534 5.90276 -10.2538
LeftLeg  26.3821 -6.06465 -2.93602
LeftFoot  9.04209 0.140957 -1.09051
LeftToes  1.06246e-005 4.65855e-005 -8.18502e-006
225
root  54.937 36.2978 17.077 -0.440491 -63.6961 3.41269
RightUpLeg  -15.2771 -20.95 7.9127
RightLeg  45.406 -16.0781 -17.0403
RightFoot  -33.5146 0.231758 2.34827
RightToes  0.000482159 0.542163 -0.142577
Spine  36.9195 0.278759 2.61082
Spine1  2.58332 0.302746 -0.813342
HEad  -28.4814 -23.6346 11.7508
LeftShoulder1  10.3034 -15.4492 -47.4471
LeftArm  -22.8052 11.3936 -27.6396
LeftForeArm  42.1623 -46.5654 -8.84456
LeftHand  -0.25398 0.0180481 5.50724
RightShoulder  7.02524 11.6811 40.1176
RightArm  -8.29651 12.0269 30.8784
RightForeArm  6.38548 57.6491 17.4966
RightHand  -3.54355 9.47071 -27.5986
LeftUpLeg  -38.9818 6.73852 -10.0972
LeftLeg  23.5084 -7.06304 -3.02848
LeftFoot  10.8034 0.254564 -1.63634
LeftToes  1.06246e-005 4.65855e-005 -8.18502e-006
